<svg width="58" height="61" viewBox="0 0 58 61" fill="none" xmlns="http://www.w3.org/2000/svg">
<path d="M3.14604 53.62H6.67104V55H1.43604V44.575H3.14604V53.62ZM11.6861 55.135C10.9061 55.135 10.2011 54.96 9.57107 54.61C8.94107 54.25 8.44607 53.75 8.08607 53.11C7.72607 52.46 7.54607 51.71 7.54607 50.86C7.54607 50.02 7.73107 49.275 8.10107 48.625C8.47107 47.975 8.97607 47.475 9.61607 47.125C10.2561 46.775 10.9711 46.6 11.7611 46.6C12.5511 46.6 13.2661 46.775 13.9061 47.125C14.5461 47.475 15.0511 47.975 15.4211 48.625C15.7911 49.275 15.9761 50.02 15.9761 50.86C15.9761 51.7 15.7861 52.445 15.4061 53.095C15.0261 53.745 14.5061 54.25 13.8461 54.61C13.1961 54.96 12.4761 55.135 11.6861 55.135ZM11.6861 53.65C12.1261 53.65 12.5361 53.545 12.9161 53.335C13.3061 53.125 13.6211 52.81 13.8611 52.39C14.1011 51.97 14.2211 51.46 14.2211 50.86C14.2211 50.26 14.1061 49.755 13.8761 49.345C13.6461 48.925 13.3411 48.61 12.9611 48.4C12.5811 48.19 12.1711 48.085 11.7311 48.085C11.2911 48.085 10.8811 48.19 10.5011 48.4C10.1311 48.61 9.83607 48.925 9.61607 49.345C9.39607 49.755 9.28607 50.26 9.28607 50.86C9.28607 51.75 9.51107 52.44 9.96107 52.93C10.4211 53.41 10.9961 53.65 11.6861 53.65ZM20.9965 46.6C21.6365 46.6 22.2015 46.73 22.6915 46.99C23.1915 47.24 23.5815 47.555 23.8615 47.935V46.735H25.5865V55.135C25.5865 55.895 25.4265 56.57 25.1065 57.16C24.7865 57.76 24.3215 58.23 23.7115 58.57C23.1115 58.91 22.3915 59.08 21.5515 59.08C20.4315 59.08 19.5015 58.815 18.7615 58.285C18.0215 57.765 17.6015 57.055 17.5015 56.155H19.1965C19.3265 56.585 19.6015 56.93 20.0215 57.19C20.4515 57.46 20.9615 57.595 21.5515 57.595C22.2415 57.595 22.7965 57.385 23.2165 56.965C23.6465 56.545 23.8615 55.935 23.8615 55.135V53.755C23.5715 54.145 23.1765 54.475 22.6765 54.745C22.1865 55.005 21.6265 55.135 20.9965 55.135C20.2765 55.135 19.6165 54.955 19.0165 54.595C18.4265 54.225 17.9565 53.715 17.6065 53.065C17.2665 52.405 17.0965 51.66 17.0965 50.83C17.0965 50 17.2665 49.265 17.6065 48.625C17.9565 47.985 18.4265 47.49 19.0165 47.14C19.6165 46.78 20.2765 46.6 20.9965 46.6ZM23.8615 50.86C23.8615 50.29 23.7415 49.795 23.5015 49.375C23.2715 48.955 22.9665 48.635 22.5865 48.415C22.2065 48.195 21.7965 48.085 21.3565 48.085C20.9165 48.085 20.5065 48.195 20.1265 48.415C19.7465 48.625 19.4365 48.94 19.1965 49.36C18.9665 49.77 18.8515 50.26 18.8515 50.83C18.8515 51.4 18.9665 51.9 19.1965 52.33C19.4365 52.76 19.7465 53.09 20.1265 53.32C20.5165 53.54 20.9265 53.65 21.3565 53.65C21.7965 53.65 22.2065 53.54 22.5865 53.32C22.9665 53.1 23.2715 52.78 23.5015 52.36C23.7415 51.93 23.8615 51.43 23.8615 50.86ZM36.484 55.105C35.514 55.105 34.619 54.88 33.799 54.43C32.989 53.97 32.344 53.335 31.864 52.525C31.394 51.705 31.159 50.785 31.159 49.765C31.159 48.745 31.394 47.83 31.864 47.02C32.344 46.21 32.989 45.58 33.799 45.13C34.619 44.67 35.514 44.44 36.484 44.44C37.464 44.44 38.359 44.67 39.169 45.13C39.989 45.58 40.634 46.21 41.104 47.02C41.574 47.83 41.809 48.745 41.809 49.765C41.809 50.785 41.574 51.705 41.104 52.525C40.634 53.335 39.989 53.97 39.169 54.43C38.359 54.88 37.464 55.105 36.484 55.105ZM36.484 53.62C37.174 53.62 37.789 53.465 38.329 53.155C38.869 52.835 39.289 52.385 39.589 51.805C39.899 51.215 40.054 50.535 40.054 49.765C40.054 48.995 39.899 48.32 39.589 47.74C39.289 47.16 38.869 46.715 38.329 46.405C37.789 46.095 37.174 45.94 36.484 45.94C35.794 45.94 35.179 46.095 34.639 46.405C34.099 46.715 33.674 47.16 33.364 47.74C33.064 48.32 32.914 48.995 32.914 49.765C32.914 50.535 33.064 51.215 33.364 51.805C33.674 52.385 34.099 52.835 34.639 53.155C35.179 53.465 35.794 53.62 36.484 53.62ZM50.9767 46.735V55H49.2667V54.025C48.9967 54.365 48.6417 54.635 48.2017 54.835C47.7717 55.025 47.3117 55.12 46.8217 55.12C46.1717 55.12 45.5867 54.985 45.0667 54.715C44.5567 54.445 44.1517 54.045 43.8517 53.515C43.5617 52.985 43.4167 52.345 43.4167 51.595V46.735H45.1117V51.34C45.1117 52.08 45.2967 52.65 45.6667 53.05C46.0367 53.44 46.5417 53.635 47.1817 53.635C47.8217 53.635 48.3267 53.44 48.6967 53.05C49.0767 52.65 49.2667 52.08 49.2667 51.34V46.735H50.9767ZM55.2279 48.13V52.705C55.2279 53.015 55.2979 53.24 55.4379 53.38C55.5879 53.51 55.8379 53.575 56.1879 53.575H57.2379V55H55.8879C55.1179 55 54.5279 54.82 54.1179 54.46C53.7079 54.1 53.5029 53.515 53.5029 52.705V48.13H52.5279V46.735H53.5029V44.68H55.2279V46.735H57.2379V48.13H55.2279Z" fill="#ADADAD"/>
<path d="M34.25 28.3334H38.5C40.0649 28.3334 41.3333 27.0648 41.3333 25.5V8.50004C41.3333 6.93519 40.0649 5.66671 38.5 5.66671H34.25" stroke="black" stroke-width="3" stroke-linecap="round" stroke-linejoin="round"/>
<path d="M24.3333 22.6667L18.6667 17.0001L24.3333 11.3334" stroke="black" stroke-width="3" stroke-linecap="round" stroke-linejoin="round"/>
<path d="M18.6667 17H35.6667" stroke="black" stroke-width="3" stroke-linecap="round" stroke-linejoin="round"/>
</svg>
