<svg width="43" height="55" viewBox="0 0 43 55" fill="none" xmlns="http://www.w3.org/2000/svg">
<path opacity="0.15" d="M32.3333 5.66663H9.66666V28.3333H32.3333V5.66663Z" fill="black"/>
<path d="M32.3333 5.66663H9.66666V28.3333H32.3333V5.66663Z" stroke="black" stroke-width="2" stroke-linecap="round" stroke-linejoin="round"/>
<path d="M13.9167 11.3333H28.0833" stroke="black" stroke-width="2" stroke-linecap="round" stroke-linejoin="round"/>
<path d="M13.9167 17H28.0833" stroke="black" stroke-width="2" stroke-linecap="round" stroke-linejoin="round"/>
<path d="M13.9167 22.6666H22.4167" stroke="black" stroke-width="2" stroke-linecap="round" stroke-linejoin="round"/>
<path d="M12.4746 38.575V49H10.7646V41.86L7.58463 49H6.39963L3.20463 41.86V49H1.49463V38.575H3.33963L6.99963 46.75L10.6446 38.575H12.4746ZM16.4322 39.955V43.015H20.0322V44.41H16.4322V47.605H20.4822V49H14.7222V38.56H20.4822V39.955H16.4322ZM31.1534 49H29.4434L24.2984 41.215V49H22.5884V38.56H24.2984L29.4434 46.33V38.56H31.1534V49ZM35.0939 38.575V45.22C35.0939 46.01 35.2989 46.605 35.7089 47.005C36.1289 47.405 36.7089 47.605 37.4489 47.605C38.1989 47.605 38.7789 47.405 39.1889 47.005C39.6089 46.605 39.8189 46.01 39.8189 45.22V38.575H41.5289V45.19C41.5289 46.04 41.3439 46.76 40.9739 47.35C40.6039 47.94 40.1089 48.38 39.4889 48.67C38.8689 48.96 38.1839 49.105 37.4339 49.105C36.6839 49.105 35.9989 48.96 35.3789 48.67C34.7689 48.38 34.2839 47.94 33.9239 47.35C33.5639 46.76 33.3839 46.04 33.3839 45.19V38.575H35.0939Z" fill="black"/>
</svg>
