<svg width="44" height="55" viewBox="0 0 44 55" fill="none" xmlns="http://www.w3.org/2000/svg">
<path opacity="0.15" d="M13.0833 25.5H32.9167C34.4815 25.5 35.75 24.2315 35.75 22.6666V14.1666H10.25V22.6666C10.25 24.2315 11.5185 25.5 13.0833 25.5Z" fill="black"/>
<path d="M32.9167 8.5H13.0833C11.5185 8.5 10.25 9.76853 10.25 11.3333V14.1667V22.6667C10.25 24.2315 11.5185 25.5 13.0833 25.5H32.9167C34.4815 25.5 35.75 24.2315 35.75 22.6667V14.1667V11.3333C35.75 9.76853 34.4815 8.5 32.9167 8.5Z" stroke="black" stroke-width="1.5" stroke-linecap="round" stroke-linejoin="round"/>
<path d="M35.75 14.1666H10.25" stroke="black" stroke-width="1.5" stroke-linecap="round" stroke-linejoin="round"/>
<path d="M14.5 21.25H20.1667" stroke="black" stroke-width="1.5" stroke-linecap="round" stroke-linejoin="round"/>
<path d="M5.01215 49.105C4.31215 49.105 3.68215 48.985 3.12215 48.745C2.56215 48.495 2.12215 48.145 1.80215 47.695C1.48215 47.245 1.32215 46.72 1.32215 46.12H3.15215C3.19215 46.57 3.36715 46.94 3.67715 47.23C3.99715 47.52 4.44215 47.665 5.01215 47.665C5.60215 47.665 6.06215 47.525 6.39215 47.245C6.72215 46.955 6.88715 46.585 6.88715 46.135C6.88715 45.785 6.78215 45.5 6.57215 45.28C6.37215 45.06 6.11715 44.89 5.80715 44.77C5.50715 44.65 5.08715 44.52 4.54715 44.38C3.86715 44.2 3.31215 44.02 2.88215 43.84C2.46215 43.65 2.10215 43.36 1.80215 42.97C1.50215 42.58 1.35215 42.06 1.35215 41.41C1.35215 40.81 1.50215 40.285 1.80215 39.835C2.10215 39.385 2.52215 39.04 3.06215 38.8C3.60215 38.56 4.22715 38.44 4.93715 38.44C5.94715 38.44 6.77215 38.695 7.41215 39.205C8.06215 39.705 8.42215 40.395 8.49215 41.275H6.60215C6.57215 40.895 6.39215 40.57 6.06215 40.3C5.73215 40.03 5.29715 39.895 4.75715 39.895C4.26715 39.895 3.86715 40.02 3.55715 40.27C3.24715 40.52 3.09215 40.88 3.09215 41.35C3.09215 41.67 3.18715 41.935 3.37715 42.145C3.57715 42.345 3.82715 42.505 4.12715 42.625C4.42715 42.745 4.83715 42.875 5.35715 43.015C6.04715 43.205 6.60715 43.395 7.03715 43.585C7.47715 43.775 7.84715 44.07 8.14715 44.47C8.45715 44.86 8.61215 45.385 8.61215 46.045C8.61215 46.575 8.46715 47.075 8.17715 47.545C7.89715 48.015 7.48215 48.395 6.93215 48.685C6.39215 48.965 5.75215 49.105 5.01215 49.105ZM16.9149 46.87H12.5499L11.7999 49H10.0149L13.7499 38.56H15.7299L19.4649 49H17.6649L16.9149 46.87ZM16.4349 45.475L14.7399 40.63L13.0299 45.475H16.4349ZM22.7989 47.62H26.3239V49H21.0889V38.575H22.7989V47.62ZM29.4639 39.955V43.015H33.0639V44.41H29.4639V47.605H33.5139V49H27.7539V38.56H33.5139V39.955H29.4639ZM39.0551 49.105C38.3551 49.105 37.7251 48.985 37.1651 48.745C36.6051 48.495 36.1651 48.145 35.8451 47.695C35.5251 47.245 35.3651 46.72 35.3651 46.12H37.1951C37.2351 46.57 37.4101 46.94 37.7201 47.23C38.0401 47.52 38.4851 47.665 39.0551 47.665C39.6451 47.665 40.1051 47.525 40.4351 47.245C40.7651 46.955 40.9301 46.585 40.9301 46.135C40.9301 45.785 40.8251 45.5 40.6151 45.28C40.4151 45.06 40.1601 44.89 39.8501 44.77C39.5501 44.65 39.1301 44.52 38.5901 44.38C37.9101 44.2 37.3551 44.02 36.9251 43.84C36.5051 43.65 36.1451 43.36 35.8451 42.97C35.5451 42.58 35.3951 42.06 35.3951 41.41C35.3951 40.81 35.5451 40.285 35.8451 39.835C36.1451 39.385 36.5651 39.04 37.1051 38.8C37.6451 38.56 38.2701 38.44 38.9801 38.44C39.9901 38.44 40.8151 38.695 41.4551 39.205C42.1051 39.705 42.4651 40.395 42.5351 41.275H40.6451C40.6151 40.895 40.4351 40.57 40.1051 40.3C39.7751 40.03 39.3401 39.895 38.8001 39.895C38.3101 39.895 37.9101 40.02 37.6001 40.27C37.2901 40.52 37.1351 40.88 37.1351 41.35C37.1351 41.67 37.2301 41.935 37.4201 42.145C37.6201 42.345 37.8701 42.505 38.1701 42.625C38.4701 42.745 38.8801 42.875 39.4001 43.015C40.0901 43.205 40.6501 43.395 41.0801 43.585C41.5201 43.775 41.8901 44.07 42.1901 44.47C42.5001 44.86 42.6551 45.385 42.6551 46.045C42.6551 46.575 42.5101 47.075 42.2201 47.545C41.9401 48.015 41.5251 48.395 40.9751 48.685C40.4351 48.965 39.7951 49.105 39.0551 49.105Z" fill="black"/>
</svg>
